<?xml version="1.0" encoding="UTF-8"?>
<svg id="Layer_1" data-name="Layer 1" xmlns="http://www.w3.org/2000/svg" viewBox="0 0 1366 768">
  <defs>
    <style>
      .cls-1 {
        fill: #f06449;
      }

      .cls-2 {
        fill: #ff5223;
      }

      .cls-3 {
        fill: #ffb347;
      }

      .cls-4 {
        fill: #c35b44;
      }
    </style>
  </defs>
  <rect class="cls-2" x="-55" y="-86" width="1471" height="385"/>
  <path class="cls-3" d="m-149,134C-86.64,76.27,51.52,36.53,174,55c73.77,11.13,137.59,42.73,156,52,75.94,38.24,93.85,68.82,131,90,110.49,62.99,246.69-39.63,461-115,189.23-66.55,362.94-127.64,478-68,194.01,100.56,251.1,559.87,72,855-251.15,413.85-974.97,518.45-1368,200C-210.38,814.28-314.82,287.51-149,134Z"/>
  <path class="cls-1" d="m-243,389c36.53-76.68,154.26-94.23,307-117,189.35-28.22,348.91-5.76,523,20,263.43,38.98,350.43,83.04,458,22,46.52-26.4,56.53-49.55,160-117,121.6-79.27,182.4-118.9,213-102,73.19,40.42-79,286.19,5,619,23.77,94.19,43.11,102.82,34,142-53.96,232.1-840.9,395.56-1341,69-216.34-141.27-422.52-402.65-359-536Z"/>
  <path class="cls-4" d="m-307,623c45.6-60.23,132.72-45.95,191-132,40.64-60.01,15.22-91.97,52-124,72.25-62.91,258.23-16.09,341,97,37.66,51.46,21.35,72.08,51,98,87.71,76.68,263.63-74.88,517-115,51.35-8.13,366.39-58.01,555,120,131.5,124.11,208.19,365.26,125,522-221.73,417.75-1586.47,249.64-1799-176-15.43-30.89-100.37-201.02-33-290Z"/>
</svg>